<mxfile host="app.diagrams.net" modified="2022-12-30T14:33:16.885Z" agent="5.0 (X11; Linux x86_64) AppleWebKit/537.36 (KHTML, like Gecko) Chrome/109.0.0.0 Safari/537.36" version="20.7.4" etag="_y5kBMeWUBjKgH37GDo-" type="github">
  <diagram id="nVbD0FMiF3lRAyuU6x_y" name="Page-1">
    <mxGraphModel dx="1420" dy="800" grid="1" gridSize="10" guides="1" tooltips="1" connect="1" arrows="1" fold="1" page="1" pageScale="1" pageWidth="850" pageHeight="1100" math="0" shadow="0">
      <root>
        <mxCell id="0" />
        <mxCell id="1" parent="0" />
        <mxCell id="ENyHFfhiH4Af72kUwZnr-4" style="edgeStyle=orthogonalEdgeStyle;rounded=0;orthogonalLoop=1;jettySize=auto;html=1;exitX=0.5;exitY=1;exitDx=0;exitDy=0;entryX=0.5;entryY=0;entryDx=0;entryDy=0;" edge="1" parent="1" source="ENyHFfhiH4Af72kUwZnr-1" target="ENyHFfhiH4Af72kUwZnr-3">
          <mxGeometry relative="1" as="geometry" />
        </mxCell>
        <mxCell id="ENyHFfhiH4Af72kUwZnr-1" value="Start" style="ellipse;whiteSpace=wrap;html=1;aspect=fixed;strokeWidth=2;" vertex="1" parent="1">
          <mxGeometry x="380" y="140" width="80" height="80" as="geometry" />
        </mxCell>
        <mxCell id="ENyHFfhiH4Af72kUwZnr-2" value="End" style="ellipse;whiteSpace=wrap;html=1;aspect=fixed;strokeWidth=2;" vertex="1" parent="1">
          <mxGeometry x="380" y="630" width="80" height="80" as="geometry" />
        </mxCell>
        <mxCell id="ENyHFfhiH4Af72kUwZnr-6" style="edgeStyle=orthogonalEdgeStyle;rounded=0;orthogonalLoop=1;jettySize=auto;html=1;exitX=0.5;exitY=1;exitDx=0;exitDy=0;entryX=0.5;entryY=0;entryDx=0;entryDy=0;" edge="1" parent="1" source="ENyHFfhiH4Af72kUwZnr-3" target="ENyHFfhiH4Af72kUwZnr-5">
          <mxGeometry relative="1" as="geometry" />
        </mxCell>
        <mxCell id="ENyHFfhiH4Af72kUwZnr-3" value="User sees the subscription options" style="rounded=1;whiteSpace=wrap;html=1;strokeWidth=1;" vertex="1" parent="1">
          <mxGeometry x="360" y="250" width="120" height="60" as="geometry" />
        </mxCell>
        <mxCell id="ENyHFfhiH4Af72kUwZnr-8" style="edgeStyle=orthogonalEdgeStyle;rounded=0;orthogonalLoop=1;jettySize=auto;html=1;exitX=0.5;exitY=1;exitDx=0;exitDy=0;entryX=0.5;entryY=0;entryDx=0;entryDy=0;" edge="1" parent="1" source="ENyHFfhiH4Af72kUwZnr-5" target="ENyHFfhiH4Af72kUwZnr-7">
          <mxGeometry relative="1" as="geometry" />
        </mxCell>
        <mxCell id="ENyHFfhiH4Af72kUwZnr-5" value="User redirected to payment page" style="rounded=1;whiteSpace=wrap;html=1;strokeWidth=1;" vertex="1" parent="1">
          <mxGeometry x="360" y="340" width="120" height="60" as="geometry" />
        </mxCell>
        <mxCell id="ENyHFfhiH4Af72kUwZnr-11" style="edgeStyle=orthogonalEdgeStyle;rounded=0;orthogonalLoop=1;jettySize=auto;html=1;exitX=1;exitY=0.5;exitDx=0;exitDy=0;entryX=0.5;entryY=1;entryDx=0;entryDy=0;" edge="1" parent="1" source="ENyHFfhiH4Af72kUwZnr-7" target="ENyHFfhiH4Af72kUwZnr-10">
          <mxGeometry relative="1" as="geometry" />
        </mxCell>
        <mxCell id="ENyHFfhiH4Af72kUwZnr-14" style="edgeStyle=orthogonalEdgeStyle;rounded=0;orthogonalLoop=1;jettySize=auto;html=1;exitX=0.5;exitY=1;exitDx=0;exitDy=0;entryX=0.5;entryY=0;entryDx=0;entryDy=0;" edge="1" parent="1" source="ENyHFfhiH4Af72kUwZnr-7" target="ENyHFfhiH4Af72kUwZnr-13">
          <mxGeometry relative="1" as="geometry" />
        </mxCell>
        <mxCell id="ENyHFfhiH4Af72kUwZnr-7" value="was payment successful or not" style="rhombus;whiteSpace=wrap;html=1;strokeWidth=1;" vertex="1" parent="1">
          <mxGeometry x="360" y="430" width="120" height="80" as="geometry" />
        </mxCell>
        <mxCell id="ENyHFfhiH4Af72kUwZnr-12" style="edgeStyle=orthogonalEdgeStyle;rounded=0;orthogonalLoop=1;jettySize=auto;html=1;exitX=0.5;exitY=0;exitDx=0;exitDy=0;entryX=1;entryY=0.383;entryDx=0;entryDy=0;entryPerimeter=0;" edge="1" parent="1" source="ENyHFfhiH4Af72kUwZnr-10" target="ENyHFfhiH4Af72kUwZnr-3">
          <mxGeometry relative="1" as="geometry" />
        </mxCell>
        <mxCell id="ENyHFfhiH4Af72kUwZnr-10" value="An error message is shown to the user" style="rounded=1;whiteSpace=wrap;html=1;strokeWidth=1;" vertex="1" parent="1">
          <mxGeometry x="510" y="340" width="120" height="60" as="geometry" />
        </mxCell>
        <mxCell id="ENyHFfhiH4Af72kUwZnr-15" style="edgeStyle=orthogonalEdgeStyle;rounded=0;orthogonalLoop=1;jettySize=auto;html=1;exitX=0.5;exitY=1;exitDx=0;exitDy=0;entryX=0.5;entryY=0;entryDx=0;entryDy=0;" edge="1" parent="1" source="ENyHFfhiH4Af72kUwZnr-13" target="ENyHFfhiH4Af72kUwZnr-2">
          <mxGeometry relative="1" as="geometry" />
        </mxCell>
        <mxCell id="ENyHFfhiH4Af72kUwZnr-13" value="Subscription activated" style="rounded=1;whiteSpace=wrap;html=1;strokeWidth=1;" vertex="1" parent="1">
          <mxGeometry x="360" y="540" width="120" height="60" as="geometry" />
        </mxCell>
      </root>
    </mxGraphModel>
  </diagram>
</mxfile>
